<mxfile host="app.diagrams.net" modified="2024-05-01T15:27:03.734Z" agent="Mozilla/5.0 (X11; Linux x86_64) AppleWebKit/537.36 (KHTML, like Gecko) Chrome/110.0.0.0 Safari/537.36" etag="5A3obvJWqGmBWNh4bWjJ" version="24.3.1" type="github">
  <diagram name="Page-1" id="wNFxFYSQ0mcYe0BhFXiC">
    <mxGraphModel dx="1364" dy="1907" grid="1" gridSize="10" guides="1" tooltips="1" connect="1" arrows="1" fold="1" page="1" pageScale="1" pageWidth="850" pageHeight="1100" math="0" shadow="0">
      <root>
        <mxCell id="0" />
        <mxCell id="1" parent="0" />
        <mxCell id="gYCZ-g3PWGEzpMsi5fXs-1" value="Lobby" style="shape=trapezoid;perimeter=trapezoidPerimeter;whiteSpace=wrap;html=1;fixedSize=1;" vertex="1" parent="1">
          <mxGeometry x="380" y="270" width="120" height="60" as="geometry" />
        </mxCell>
        <mxCell id="gYCZ-g3PWGEzpMsi5fXs-3" value="" style="endArrow=none;html=1;rounded=0;" edge="1" parent="1" source="gYCZ-g3PWGEzpMsi5fXs-1" target="gYCZ-g3PWGEzpMsi5fXs-4">
          <mxGeometry width="50" height="50" relative="1" as="geometry">
            <mxPoint x="380" y="170" as="sourcePoint" />
            <mxPoint x="430" y="120" as="targetPoint" />
          </mxGeometry>
        </mxCell>
        <mxCell id="gYCZ-g3PWGEzpMsi5fXs-4" value="Parlor" style="shape=trapezoid;perimeter=trapezoidPerimeter;whiteSpace=wrap;html=1;fixedSize=1;" vertex="1" parent="1">
          <mxGeometry x="520" y="60" width="120" height="60" as="geometry" />
        </mxCell>
        <mxCell id="gYCZ-g3PWGEzpMsi5fXs-5" value="Dining" style="shape=trapezoid;perimeter=trapezoidPerimeter;whiteSpace=wrap;html=1;fixedSize=1;" vertex="1" parent="1">
          <mxGeometry x="200" y="50" width="120" height="60" as="geometry" />
        </mxCell>
        <mxCell id="gYCZ-g3PWGEzpMsi5fXs-6" value="" style="endArrow=none;html=1;rounded=0;entryX=0.25;entryY=1;entryDx=0;entryDy=0;exitX=1;exitY=0.75;exitDx=0;exitDy=0;" edge="1" parent="1" source="gYCZ-g3PWGEzpMsi5fXs-5" target="gYCZ-g3PWGEzpMsi5fXs-1">
          <mxGeometry width="50" height="50" relative="1" as="geometry">
            <mxPoint x="340" y="190" as="sourcePoint" />
            <mxPoint x="390" y="140" as="targetPoint" />
          </mxGeometry>
        </mxCell>
        <mxCell id="gYCZ-g3PWGEzpMsi5fXs-7" value="Entrance/Tutorial" style="shape=trapezoid;perimeter=trapezoidPerimeter;whiteSpace=wrap;html=1;fixedSize=1;" vertex="1" parent="1">
          <mxGeometry x="380" y="150" width="120" height="60" as="geometry" />
        </mxCell>
        <mxCell id="gYCZ-g3PWGEzpMsi5fXs-8" value="" style="endArrow=none;html=1;rounded=0;exitX=0.5;exitY=0;exitDx=0;exitDy=0;" edge="1" parent="1" source="gYCZ-g3PWGEzpMsi5fXs-1" target="gYCZ-g3PWGEzpMsi5fXs-7">
          <mxGeometry width="50" height="50" relative="1" as="geometry">
            <mxPoint x="420" y="50" as="sourcePoint" />
            <mxPoint x="420" y="10" as="targetPoint" />
          </mxGeometry>
        </mxCell>
        <mxCell id="gYCZ-g3PWGEzpMsi5fXs-9" value="Bedroom&lt;div&gt;Locked&lt;/div&gt;" style="shape=trapezoid;perimeter=trapezoidPerimeter;whiteSpace=wrap;html=1;fixedSize=1;" vertex="1" parent="1">
          <mxGeometry x="500" y="-80" width="120" height="60" as="geometry" />
        </mxCell>
        <mxCell id="gYCZ-g3PWGEzpMsi5fXs-10" value="" style="endArrow=none;html=1;rounded=0;entryX=0.571;entryY=-0.058;entryDx=0;entryDy=0;entryPerimeter=0;" edge="1" parent="1" source="gYCZ-g3PWGEzpMsi5fXs-4" target="gYCZ-g3PWGEzpMsi5fXs-9">
          <mxGeometry width="50" height="50" relative="1" as="geometry">
            <mxPoint x="530" y="270" as="sourcePoint" />
            <mxPoint x="630" y="130" as="targetPoint" />
            <Array as="points" />
          </mxGeometry>
        </mxCell>
        <mxCell id="gYCZ-g3PWGEzpMsi5fXs-11" value="Cellar&amp;nbsp;&lt;div&gt;Locked&lt;/div&gt;" style="shape=trapezoid;perimeter=trapezoidPerimeter;whiteSpace=wrap;html=1;fixedSize=1;" vertex="1" parent="1">
          <mxGeometry x="290" y="500" width="120" height="60" as="geometry" />
        </mxCell>
        <mxCell id="gYCZ-g3PWGEzpMsi5fXs-12" value="Kitchen" style="shape=trapezoid;perimeter=trapezoidPerimeter;whiteSpace=wrap;html=1;fixedSize=1;" vertex="1" parent="1">
          <mxGeometry x="300" y="380" width="120" height="60" as="geometry" />
        </mxCell>
        <mxCell id="gYCZ-g3PWGEzpMsi5fXs-15" value="" style="endArrow=none;html=1;rounded=0;entryX=0.5;entryY=1;entryDx=0;entryDy=0;exitX=0.583;exitY=-0.042;exitDx=0;exitDy=0;exitPerimeter=0;" edge="1" parent="1" source="gYCZ-g3PWGEzpMsi5fXs-11" target="gYCZ-g3PWGEzpMsi5fXs-12">
          <mxGeometry width="50" height="50" relative="1" as="geometry">
            <mxPoint x="220" y="350" as="sourcePoint" />
            <mxPoint x="270" y="300" as="targetPoint" />
          </mxGeometry>
        </mxCell>
        <mxCell id="gYCZ-g3PWGEzpMsi5fXs-16" value="" style="endArrow=none;html=1;rounded=0;entryX=0.5;entryY=0;entryDx=0;entryDy=0;exitX=0.5;exitY=1;exitDx=0;exitDy=0;" edge="1" parent="1" source="gYCZ-g3PWGEzpMsi5fXs-5" target="gYCZ-g3PWGEzpMsi5fXs-12">
          <mxGeometry width="50" height="50" relative="1" as="geometry">
            <mxPoint x="350" y="260" as="sourcePoint" />
            <mxPoint x="410" y="370" as="targetPoint" />
          </mxGeometry>
        </mxCell>
        <mxCell id="gYCZ-g3PWGEzpMsi5fXs-17" value="Library&lt;div&gt;Locked&lt;/div&gt;" style="shape=trapezoid;perimeter=trapezoidPerimeter;whiteSpace=wrap;html=1;fixedSize=1;" vertex="1" parent="1">
          <mxGeometry x="150" y="-70" width="120" height="60" as="geometry" />
        </mxCell>
        <mxCell id="gYCZ-g3PWGEzpMsi5fXs-19" value="" style="endArrow=none;html=1;rounded=0;entryX=0.25;entryY=1;entryDx=0;entryDy=0;exitX=0.583;exitY=-0.025;exitDx=0;exitDy=0;exitPerimeter=0;" edge="1" parent="1" source="gYCZ-g3PWGEzpMsi5fXs-17" target="gYCZ-g3PWGEzpMsi5fXs-5">
          <mxGeometry width="50" height="50" relative="1" as="geometry">
            <mxPoint x="160" y="340" as="sourcePoint" />
            <mxPoint x="210" y="290" as="targetPoint" />
          </mxGeometry>
        </mxCell>
        <mxCell id="gYCZ-g3PWGEzpMsi5fXs-22" value="FIRST FLOOR" style="text;html=1;align=center;verticalAlign=middle;resizable=0;points=[];autosize=1;strokeColor=none;fillColor=none;" vertex="1" parent="1">
          <mxGeometry x="705" y="75" width="100" height="30" as="geometry" />
        </mxCell>
        <mxCell id="gYCZ-g3PWGEzpMsi5fXs-24" value="SECOND FLOOR" style="text;html=1;align=center;verticalAlign=middle;resizable=0;points=[];autosize=1;strokeColor=none;fillColor=none;" vertex="1" parent="1">
          <mxGeometry x="689" y="-70" width="120" height="30" as="geometry" />
        </mxCell>
      </root>
    </mxGraphModel>
  </diagram>
</mxfile>
